<svg xmlns="http://www.w3.org/2000/svg" viewBox="0 0 1200 800">
  <defs>
    <linearGradient id="h1" x1="0" y1="0" x2="0" y2="1">
      <stop offset="0" stop-color="#3A5578"/><stop offset="0.55" stop-color="#C98C72"/><stop offset="1" stop-color="#F2C58A"/>
    </linearGradient>
  </defs>
  <rect width="1200" height="800" fill="url(#h1)"/>
  <circle cx="300" cy="250" r="120" fill="#F7D79B" opacity="0.6"/>
  <rect y="560" width="1200" height="240" fill="#7E8C5A"/>
  <rect y="560" width="1200" height="40" fill="#8C9A66"/>
  <rect x="430" y="330" width="340" height="250" fill="#F3ECDD"/>
  <path d="M410 335 L600 235 L790 335 Z" fill="#7C4A36"/>
  <rect x="430" y="500" width="340" height="14" fill="#C9B79A"/>
  <rect x="575" y="455" width="50" height="125" fill="#7C4A36"/>
  <rect x="470" y="390" width="60" height="60" fill="#9CC2D6"/><rect x="670" y="390" width="60" height="60" fill="#9CC2D6"/>
  <g stroke="#F3ECDD" stroke-width="4"><line x1="500" y1="390" x2="500" y2="450"/><line x1="470" y1="420" x2="530" y2="420"/><line x1="700" y1="390" x2="700" y2="450"/><line x1="670" y1="420" x2="730" y2="420"/></g>
  <rect x="700" y="270" width="34" height="70" fill="#8C5440"/>
  <g><rect x="250" y="470" width="16" height="100" fill="#6B4A2E"/><circle cx="258" cy="450" r="46" fill="#4E6B3C"/></g>
  <g><rect x="930" y="470" width="16" height="100" fill="#6B4A2E"/><circle cx="938" cy="450" r="52" fill="#456238"/></g>
</svg>
